<svg xmlns="http://www.w3.org/2000/svg" xmlns:xlink="http://www.w3.org/1999/xlink" contentStyleType="text/css" height="564.0625px" preserveAspectRatio="none" style="width:3562px;height:564px;background:#FFFFFF;" version="1.1" viewBox="0 0 3562 564" width="3562.5px" zoomAndPan="magnify"><title>Diagrama de comunicaci&#243;n &#8212; Ingreso al aula virtual y cierre de la clase</title><defs/><g><text fill="#000000" font-family="Helvetica" font-size="21.875" font-weight="bold" lengthAdjust="spacing" textLength="881.7078" x="1329.6616" y="35.9299">Diagrama de comunicaci&#243;n &#8212; Ingreso al aula virtual y cierre de la clase</text><!--entity T--><g id="elem_T"><ellipse cx="59.3094" cy="283.042" fill="#F1F1F1" rx="12.5" ry="12.5" style="stroke:#181818;stroke-width:0.78125;"/><path d="M59.3094,295.542 L59.3094,337.7295 M38.9969,308.042 L79.6219,308.042 M59.3094,337.7295 L38.9969,361.167 M59.3094,337.7295 L79.6219,361.167 " fill="none" style="stroke:#181818;stroke-width:0.78125;"/><text fill="#000000" font-family="Helvetica" font-size="18.75" lengthAdjust="spacing" textLength="49.8688" x="34.375" y="380.9149">Tutor</text></g><!--entity E--><g id="elem_E"><ellipse cx="59.4864" cy="453.3545" fill="#F1F1F1" rx="12.5" ry="12.5" style="stroke:#181818;stroke-width:0.78125;"/><path d="M59.4864,465.8545 L59.4864,508.042 M39.1739,478.3545 L79.7989,478.3545 M59.4864,508.042 L39.1739,531.4795 M59.4864,508.042 L79.7989,531.4795 " fill="none" style="stroke:#181818;stroke-width:0.78125;"/><text fill="#000000" font-family="Helvetica" font-size="18.75" lengthAdjust="spacing" textLength="100.2228" x="9.375" y="551.2274">Estudiante</text></g><!--entity FE--><g id="elem_FE"><rect fill="#F1F1F1" height="53.0762" rx="6.25" ry="6.25" style="stroke:#181818;stroke-width:0.78125;" width="122.0886" x="432.8125" y="386.9482"/><text fill="#000000" font-family="Helvetica" font-size="18.75" lengthAdjust="spacing" textLength="90.8386" x="448.4375" y="419.9774">:Frontend</text></g><!--entity SC--><g id="elem_SC"><rect fill="#F1F1F1" height="53.0762" rx="6.25" ry="6.25" style="stroke:#181818;stroke-width:0.78125;" width="191.98" x="1180.4688" y="327.5732"/><text fill="#000000" font-family="Helvetica" font-size="18.75" lengthAdjust="spacing" textLength="160.73" x="1196.0938" y="360.6024">:SesionController</text></g><!--entity SS--><g id="elem_SS"><rect fill="#F1F1F1" height="53.0762" rx="6.25" ry="6.25" style="stroke:#181818;stroke-width:0.78125;" width="168.634" x="2143.75" y="302.5732"/><text fill="#000000" font-family="Helvetica" font-size="18.75" lengthAdjust="spacing" textLength="137.384" x="2159.375" y="335.6024">:SesionService</text></g><!--entity LKS--><g id="elem_LKS"><rect fill="#F1F1F1" height="53.0762" rx="6.25" ry="6.25" style="stroke:#181818;stroke-width:0.78125;" width="170.0073" x="2742.9688" y="210.3857"/><text fill="#000000" font-family="Helvetica" font-size="18.75" lengthAdjust="spacing" textLength="138.7573" x="2758.5938" y="243.4149">:LiveKitService</text></g><!--entity LK--><g id="elem_LK"><rect fill="#F1F1F1" height="53.0762" rx="6.25" ry="6.25" style="stroke:#181818;stroke-width:0.78125;" width="153.9124" x="925" y="441.6357"/><text fill="#000000" font-family="Helvetica" font-size="18.75" lengthAdjust="spacing" textLength="122.6624" x="940.625" y="474.6649">LiveKit Cloud</text></g><!--entity LWS--><g id="elem_LWS"><rect fill="#F1F1F1" height="53.0762" rx="6.25" ry="6.25" style="stroke:#181818;stroke-width:0.78125;" width="257.6691" x="1479.6875" y="460.3857"/><text fill="#000000" font-family="Helvetica" font-size="18.75" lengthAdjust="spacing" textLength="226.4191" x="1495.3125" y="493.4149">:LiveKitWebhookService</text></g><!--entity CJ--><g id="elem_CJ"><rect fill="#F1F1F1" height="53.0762" rx="6.25" ry="6.25" style="stroke:#181818;stroke-width:0.78125;" width="225.2594" x="1496.0938" y="219.7607"/><text fill="#000000" font-family="Helvetica" font-size="18.75" lengthAdjust="spacing" textLength="194.0094" x="1511.7188" y="252.7899">:CorteAutomaticoJob</text></g><!--entity ES--><g id="elem_ES"><rect fill="#F1F1F1" height="53.0762" rx="6.25" ry="6.25" style="stroke:#181818;stroke-width:0.78125;" width="173.3032" x="2741.4063" y="318.1982"/><text fill="#000000" font-family="Helvetica" font-size="18.75" lengthAdjust="spacing" textLength="142.0532" x="2757.0313" y="351.2274">:EscrowService</text></g><!--entity RSU--><g id="elem_RSU"><rect fill="#F1F1F1" height="53.0762" rx="6.25" ry="6.25" style="stroke:#181818;stroke-width:0.78125;" width="194.7632" x="2730.4688" y="426.0107"/><text fill="#000000" font-family="Helvetica" font-size="18.75" lengthAdjust="spacing" textLength="163.5132" x="2746.0938" y="459.0399">:ResumenService</text></g><!--entity DB--><g id="elem_DB"><path d="M3390.625,370.542 C3390.625,354.917 3463.4842,354.917 3463.4842,354.917 C3463.4842,354.917 3536.3434,354.917 3536.3434,370.542 L3536.3434,406.4307 C3536.3434,422.0557 3463.4842,422.0557 3463.4842,422.0557 C3463.4842,422.0557 3390.625,422.0557 3390.625,406.4307 L3390.625,370.542 " fill="#F1F1F1" style="stroke:#181818;stroke-width:0.78125;"/><path d="M3390.625,370.542 C3390.625,386.167 3463.4842,386.167 3463.4842,386.167 C3463.4842,386.167 3536.3434,386.167 3536.3434,370.542 " fill="none" style="stroke:#181818;stroke-width:0.78125;"/><text fill="#000000" font-family="Helvetica" font-size="18.75" lengthAdjust="spacing" textLength="114.4684" x="3406.25" y="409.8212">:PostgreSQL</text></g><!--link T to FE--><g id="link_T_FE"><path d="M84.7344,332.3232 C150.4219,345.4014 335.75,382.3389 432.1875,401.5576 " fill="none" id="T-FE" style="stroke:#333333;stroke-width:1.5625;"/><text fill="#000000" font-family="Helvetica" font-size="18.75" lengthAdjust="spacing" textLength="114.2578" x="214.0625" y="323.1024">1: abrir aula</text><text fill="#000000" font-family="Helvetica" font-size="18.75" lengthAdjust="spacing" textLength="226.7578" x="157.8125" y="344.9286">1a: publicar audio/video</text></g><!--link E to FE--><g id="link_E_FE"><path d="M109.5625,488.3701 C189.0938,472.8076 346.6875,441.9795 432.7344,425.1514 " fill="none" id="E-FE" style="stroke:#333333;stroke-width:1.5625;"/><text fill="#000000" font-family="Helvetica" font-size="18.75" lengthAdjust="spacing" textLength="114.2578" x="214.0625" y="432.4774">2: abrir aula</text></g><!--link FE to SC--><g id="link_FE_SC"><path d="M555.2031,408.9482 C689.8125,398.6982 1017.2188,373.7607 1179.9531,361.3701 " fill="none" id="FE-SC" style="stroke:#333333;stroke-width:1.5625;"/><text fill="#000000" font-family="Helvetica" font-size="18.75" lengthAdjust="spacing" textLength="273.5504" x="603.125" y="380.9149">3: POST /sesiones/{id}/token</text></g><!--link SC to SS--><g id="link_SC_SS"><path d="M1372.9688,351.6357 C1558.75,346.7451 1967.7813,335.9639 2143.5781,331.3232 " fill="none" id="SC-SS" style="stroke:#333333;stroke-width:1.5625;"/><text fill="#000000" font-family="Helvetica" font-size="18.75" lengthAdjust="spacing" textLength="267.8741" x="1475" y="338.7274">4: obtenerToken(usuario, id)</text></g><!--link SS to LKS--><g id="link_SS_LKS"><path d="M2257.875,302.292 C2282.4844,280.8076 2320.2813,252.3389 2359.375,240.0732 C2488.4219,199.5576 2647.5625,210.4951 2742.8594,223.042 " fill="none" id="SS-LKS" style="stroke:#333333;stroke-width:1.5625;"/><text fill="#000000" font-family="Helvetica" font-size="18.75" lengthAdjust="spacing" textLength="308.0658" x="2360.9375" y="207.4774">5: generarToken(sala, identidad)</text></g><!--link SS to LKS--><g id="link_SS_LKS"><path d="M2312.8906,320.9951 C2401.7656,311.7295 2546.5625,294.9639 2670.3125,272.8857 C2694.0156,268.6514 2719.5469,263.1826 2742.9531,257.792 " fill="none" id="SS-LKS-1" style="stroke:#333333;stroke-width:1.5625;"/><text fill="#000000" font-family="Helvetica" font-size="18.75" lengthAdjust="spacing" textLength="136.5143" x="2446.875" y="268.4149">13: cerrar sala</text></g><!--link SS to DB--><g id="link_SS_DB"><path d="M2242.7969,302.417 C2262.3906,265.9326 2303.1094,202.0889 2359.375,176.0107 C2593.1406,67.6514 2685.4375,136.8701 2939.0625,182.2607 C3126.2656,215.7764 3170.4375,243.0107 3343.75,321.3232 C3365.2344,331.0264 3387.9219,343.4014 3407.6094,354.8857 " fill="none" id="SS-DB" style="stroke:#333333;stroke-width:1.5625;"/><text fill="#000000" font-family="Helvetica" font-size="18.75" lengthAdjust="spacing" textLength="219.6533" x="2718.75" y="130.9149">6: leer sesi&#243;n y reserva</text></g><!--link FE to LK--><g id="link_FE_LK"><path d="M554.7344,435.7607 C569.8125,440.5576 586.125,445.042 601.5625,447.8857 C712.4688,468.2764 843.4375,470.9639 924.3125,470.2139 " fill="none" id="FE-LK" style="stroke:#333333;stroke-width:1.5625;"/><text fill="#000000" font-family="Helvetica" font-size="18.75" lengthAdjust="spacing" textLength="215.4785" x="632.8125" y="443.4149">7: conectar(token JWT)</text></g><!--link LK to LWS--><g id="link_LK_LWS"><path d="M1080.2969,470.5732 C1180.6094,473.6982 1358.1875,479.2139 1479.1719,482.9795 " fill="none" id="LK-LWS" style="stroke:#333333;stroke-width:1.5625;"/><text fill="#000000" font-family="Helvetica" font-size="18.75" lengthAdjust="spacing" textLength="297.6471" x="1128.125" y="446.5399">8: participant_joined (webhook)</text><text fill="#000000" font-family="Helvetica" font-size="18.75" lengthAdjust="spacing" textLength="178.0151" x="1187.941" y="468.3661">11: participant_left</text></g><!--link LWS to DB--><g id="link_LWS_DB"><path d="M1737.6406,495.1514 C1974.5313,509.0107 2498.5313,533.1357 2939.0625,507.2607 C3119.7344,496.6514 3172.7813,521.3076 3343.75,461.9482 C3370.1875,452.7764 3396.8906,436.8389 3418.1875,422.1357 " fill="none" id="LWS-DB" style="stroke:#333333;stroke-width:1.5625;"/><text fill="#000000" font-family="Helvetica" font-size="18.75" lengthAdjust="spacing" textLength="201.3702" x="2414.8438" y="490.2899">9: sesi&#243;n &#8594; en_curso,</text><text fill="#000000" font-family="Helvetica" font-size="18.75" lengthAdjust="spacing" textLength="187.0331" x="2422.0123" y="512.1161">joinedAt, conectado</text></g><!--link LWS to SS--><g id="link_LWS_SS"><path d="M1737.5,483.292 C1838,476.8545 1980.2187,459.7764 2096.875,415.0732 C2133.1875,401.1514 2169.6875,375.6982 2194.6719,356.1045 " fill="none" id="LWS-SS" style="stroke:#333333;stroke-width:1.5625;"/><text fill="#000000" font-family="Helvetica" font-size="18.75" lengthAdjust="spacing" textLength="223.9014" x="1832.0313" y="410.6024">10: cancelarNoShow(id)</text></g><!--link CJ to SS--><g id="link_CJ_SS"><path d="M1721.3594,260.5576 C1820.0469,273.2764 1968.125,292.6045 2096.875,310.3857 C2111.9688,312.4639 2128.0469,314.7451 2143.5625,316.9795 " fill="none" id="CJ-SS" style="stroke:#333333;stroke-width:1.5625;"/><text fill="#000000" font-family="Helvetica" font-size="18.75" lengthAdjust="spacing" textLength="303.6896" x="1792.1875" y="266.8524">12: ejecutarCorteAutomatico(id)</text></g><!--link SS to ES--><g id="link_SS_ES"><path d="M2313.0156,348.792 C2328.3594,351.667 2344.2813,354.167 2359.375,355.6982 C2492.1563,369.1514 2647.2031,360.8076 2741.0625,353.1045 " fill="none" id="SS-ES" style="stroke:#333333;stroke-width:1.5625;"/><text fill="#000000" font-family="Helvetica" font-size="18.75" lengthAdjust="spacing" textLength="246.1304" x="2392.1875" y="351.2274">14: SesionFinalizadaEvent</text></g><!--link SS to RSU--><g id="link_SS_RSU"><path d="M2269.3594,355.8545 C2294.1563,371.1982 2327.375,389.3701 2359.375,399.4482 C2483.5625,438.542 2634.3594,449.542 2730.3906,452.292 " fill="none" id="SS-RSU" style="stroke:#333333;stroke-width:1.5625;"/><text fill="#000000" font-family="Helvetica" font-size="18.75" lengthAdjust="spacing" textLength="246.1304" x="2392.1875" y="394.9774">15: SesionFinalizadaEvent</text></g><!--link ES to DB--><g id="link_ES_DB"><path d="M2914.9219,350.667 C3040.6094,359.3545 3273.375,375.4795 3390.4844,383.5732 " fill="none" id="ES-DB" style="stroke:#333333;stroke-width:1.5625;"/><text fill="#000000" font-family="Helvetica" font-size="18.75" lengthAdjust="spacing" textLength="237.735" x="3046.0938" y="352.7899">16: liberarAt = fin + 24 h</text></g><!--link RSU to DB--><g id="link_RSU_DB"><path d="M2925.9063,450.5576 C3029.5781,447.292 3199.1563,438.7764 3343.75,416.6357 C3358.9375,414.3076 3375.0625,411.0264 3390.3438,407.5107 " fill="none" id="RSU-DB" style="stroke:#333333;stroke-width:1.5625;"/><text fill="#000000" font-family="Helvetica" font-size="18.75" lengthAdjust="spacing" textLength="355.8472" x="2987.5" y="412.1649">17: crear ResumenSesion (pendiente)</text></g><!--SRC=[TPFFRXCn4CRl-nJ3dbBH4b9Q_gp4eTrk9D88IZSebqgLrvucqpfsvRLJ5OJ4YGT0l0cFm9lqIHZlDcaMoYcAvpVVZhzl_8ICr44Xd6FjITjd51OwyUGrmX69cHCB0LoMTX4CII7fzoy3Tzz-mZipSrXR41f4q0AMv7pWFxSW2Pt3sCN7KeiQ4uqN7hm5HxEv1qKEfIThaaH8Rnsaay0_AOWQ9gkZelP1aJ0Uc_CYYJt2p7YmD1iwomMZcjAmMoknPkcS0MUrnbQsp1zXIdHBagr-MNQ0CItncFmcCJxk8FS4vDe6TGyy9Z75QcxjLKTfslrORft70xPW8Jn9Ex9LW-MZ3bNKqjcRJPsYAtEATLXWvrQdvQT42Iyg3e694rjxJgtyE6wgHuT9Ce6T7NOGCaW76OZAaMloF3C3aS5rg3Id7eyKsVwI5DeqAHvwTZTxqcJObCeybbvaSFAXd42_Rip6kl-5rDU-jrTeqeIPI9QHtCl0LXmdkaaiza8TX2Ex3QIsc2mZoUv7T3-3MGJ5FLeBBIA7nfCI3_ZHOQHVPg0H7SG9ujxU0gyisxEUT7mSiLSPxxU9JhfUCnwCfXEMucfafisNNxCRmd4-TCrBUNvfoQ22taqRxnRxDUWISUTPOxenpvjiFShTzn-0vbm6LzljCzFA7VZjrIJAhdjRamRFUKfX96hXtjjoRczwZJtvQ8FXEF0IPU2R_BLKlN-z7712afygnnjjN5MBjiYXjAzaI4Pe-YoKA9PiymhZrMgu_VzonSRD1p4Agc9m1nxUmWKPU0gxUp1FawZq0COm7F9CwtMEuj2xvkTEh8jRwHy0]--></g></svg>