<svg xmlns="http://www.w3.org/2000/svg" xmlns:xlink="http://www.w3.org/1999/xlink" contentStyleType="text/css" height="2676.5625px" preserveAspectRatio="none" style="width:1682px;height:2676px;background:#FFFFFF;" version="1.1" viewBox="0 0 1682 2676" width="1682.8125px" zoomAndPan="magnify"><title>Diagrama de visi&#243;n general de interacciones &#8212; De la b&#250;squeda al cierre de la clase</title><defs/><g><text fill="#000000" font-family="Helvetica" font-size="21.875" font-weight="bold" lengthAdjust="spacing" textLength="1027.0996" x="326.2177" y="51.5549">Diagrama de visi&#243;n general de interacciones &#8212; De la b&#250;squeda al cierre de la clase</text><ellipse cx="842.1112" cy="89.5264" fill="#222222" rx="15.625" ry="15.625" style="stroke:#222222;stroke-width:1.5625;"/><rect fill="none" height="209.2285" rx="6.25" ry="6.25" style="stroke:#000000;stroke-width:2.34375;" width="591.8396" x="546.1914" y="120.7764"/><path d="M871.4203,120.7764 L871.4203,131.665 L855.7953,147.29 L546.1914,147.29 " fill="none" style="stroke:#000000;stroke-width:2.34375;"/><text fill="#000000" font-family="Helvetica" font-size="18.75" lengthAdjust="spacing" textLength="309.6039" x="550.8789" y="139.743">ref: Buscar tutores (sd Matching)</text><rect fill="#EEF3FB" height="53.0762" rx="6.25" ry="6.25" style="stroke:#2F5A9E;stroke-width:0.78125;" width="560.5896" x="561.8164" y="173.8525"/><text fill="#000000" font-family="Helvetica" font-size="18.75" lengthAdjust="spacing" textLength="529.3396" x="577.4414" y="206.8817">Frontend &#8594; BusquedaController &#8594; MatchingOrquestador</text><rect fill="#EEF3FB" height="53.0762" rx="6.25" ry="6.25" style="stroke:#2F5A9E;stroke-width:0.78125;" width="551.7456" x="566.2384" y="258.1787"/><text fill="#000000" font-family="Helvetica" font-size="18.75" lengthAdjust="spacing" textLength="520.4956" x="581.8634" y="291.2079">MatchingOrquestador &#8594; matching-service POST /match</text><polygon fill="#EEF3FB" points="743.2343,361.2549,940.9882,361.2549,959.7382,380.0049,940.9882,398.7549,743.2343,398.7549,724.4843,380.0049,743.2343,361.2549" style="stroke:#2F5A9E;stroke-width:0.78125;"/><text fill="#000000" font-family="Helvetica" font-size="18.75" lengthAdjust="spacing" textLength="197.7539" x="743.2343" y="386.496">&#191;Beneficiario menor?</text><text fill="#000000" font-family="Helvetica" font-size="18.75" lengthAdjust="spacing" textLength="14.978" x="709.5062" y="375.5829">s&#237;</text><text fill="#000000" font-family="Helvetica" font-size="18.75" lengthAdjust="spacing" textLength="23.3551" x="959.7382" y="375.5829">no</text><rect fill="none" height="220.166" rx="6.25" ry="6.25" style="stroke:#000000;stroke-width:2.34375;" width="697.702" x="135.8017" y="414.3799"/><path d="M493.66,414.3799 L493.66,425.2686 L478.035,440.8936 L135.8017,440.8936 " fill="none" style="stroke:#000000;stroke-width:2.34375;"/><text fill="#000000" font-family="Helvetica" font-size="18.75" lengthAdjust="spacing" textLength="342.2333" x="140.4892" y="433.3466">ref: Solicitud de sesi&#243;n (sd Solicitud)</text><rect fill="#EEF3FB" height="53.0762" rx="6.25" ry="6.25" style="stroke:#2F5A9E;stroke-width:0.78125;" width="360.0891" x="304.6082" y="467.4561"/><text fill="#000000" font-family="Helvetica" font-size="18.75" lengthAdjust="spacing" textLength="328.8391" x="320.2332" y="500.4852">Menor &#8594; SolicitudController (crear)</text><rect fill="#EEF3FB" height="53.0762" rx="6.25" ry="6.25" style="stroke:#2F5A9E;stroke-width:0.78125;" width="666.452" x="151.4267" y="562.7197"/><text fill="#000000" font-family="Helvetica" font-size="18.75" lengthAdjust="spacing" textLength="635.202" x="167.0517" y="595.7489">Adulto Responsable &#8594; aprobar &#8594; ReservaService.aprobarSolicitud()</text><rect fill="none" height="124.9023" rx="6.25" ry="6.25" style="stroke:#000000;stroke-width:2.34375;" width="669.632" x="864.7537" y="414.3799"/><path d="M1190.5136,414.3799 L1190.5136,425.2686 L1174.8886,440.8936 L864.7537,440.8936 " fill="none" style="stroke:#000000;stroke-width:2.34375;"/><text fill="#000000" font-family="Helvetica" font-size="18.75" lengthAdjust="spacing" textLength="310.1349" x="869.4412" y="433.3466">ref: Reserva directa (sd Reserva)</text><rect fill="#EEF3FB" height="53.0762" rx="6.25" ry="6.25" style="stroke:#2F5A9E;stroke-width:0.78125;" width="638.382" x="880.3787" y="467.4561"/><text fill="#000000" font-family="Helvetica" font-size="18.75" lengthAdjust="spacing" textLength="607.132" x="896.0037" y="500.4852">Estudiante &#8594; ReservaController &#8594; ReservaService.crearDirecta()</text><polygon fill="#EEF3FB" points="842.1112,643.9209,860.8612,662.6709,842.1112,681.4209,823.3612,662.6709,842.1112,643.9209" style="stroke:#2F5A9E;stroke-width:0.78125;"/><rect fill="none" height="209.2285" rx="6.25" ry="6.25" style="stroke:#000000;stroke-width:2.34375;" width="552.8564" x="565.683" y="697.0459"/><path d="M1036.1145,697.0459 L1036.1145,707.9346 L1020.4895,723.5596 L565.683,723.5596 " fill="none" style="stroke:#000000;stroke-width:2.34375;"/><text fill="#000000" font-family="Helvetica" font-size="18.75" lengthAdjust="spacing" textLength="454.8065" x="570.3705" y="716.0126">ref: Pago con escrow (sd Pago &#8212; Fig. secuencia)</text><rect fill="#EEF3FB" height="53.0762" rx="6.25" ry="6.25" style="stroke:#2F5A9E;stroke-width:0.78125;" width="429.1199" x="627.5513" y="750.1221"/><text fill="#000000" font-family="Helvetica" font-size="18.75" lengthAdjust="spacing" textLength="397.8699" x="643.1763" y="783.1512">PagoService &#8594; MercadoPago (preferencia)</text><rect fill="#EEF3FB" height="53.0762" rx="6.25" ry="6.25" style="stroke:#2F5A9E;stroke-width:0.78125;" width="521.6064" x="581.308" y="834.4482"/><text fill="#000000" font-family="Helvetica" font-size="18.75" lengthAdjust="spacing" textLength="490.3564" x="596.933" y="867.4774">Webhook &#8594; EscrowService.procesarPagoAprobado()</text><rect fill="#EEF3FB" height="53.0762" rx="6.25" ry="6.25" style="stroke:#2F5A9E;stroke-width:0.78125;" width="484.2987" x="599.9619" y="1014.0625"/><text fill="#000000" font-family="Helvetica" font-size="18.75" lengthAdjust="spacing" textLength="453.0487" x="615.5869" y="1047.0917">sd Timeout: ReservaTimeoutPagoJob &#8594; cancelar</text><ellipse cx="842.1112" cy="1128.8818" fill="none" rx="17.1875" ry="17.1875" style="stroke:#222222;stroke-width:1.5625;"/><ellipse cx="842.1112" cy="1128.8818" fill="#222222" rx="9.375" ry="9.375" style="stroke:#222222;stroke-width:1.5625;"/><polygon fill="#EEF3FB" points="711.1679,937.5244,973.0545,937.5244,991.8045,956.2744,973.0545,975.0244,711.1679,975.0244,692.4179,956.2744,711.1679,937.5244" style="stroke:#2F5A9E;stroke-width:0.78125;"/><text fill="#000000" font-family="Helvetica" font-size="18.75" lengthAdjust="spacing" textLength="23.3551" x="848.3612" y="992.4286">no</text><text fill="#000000" font-family="Helvetica" font-size="18.75" lengthAdjust="spacing" textLength="261.8866" x="711.1679" y="962.7655">&#191;Pago aprobado en 15 min?</text><rect fill="none" height="209.2285" rx="6.25" ry="6.25" style="stroke:#000000;stroke-width:2.34375;" width="508.3435" x="587.9395" y="1196.0693"/><path d="M970.2789,1196.0693 L970.2789,1206.958 L954.6539,1222.583 L587.9395,1222.583 " fill="none" style="stroke:#000000;stroke-width:2.34375;"/><text fill="#000000" font-family="Helvetica" font-size="18.75" lengthAdjust="spacing" textLength="366.7145" x="592.627" y="1215.036">ref: Ingreso al aula (Fig. comunicaci&#243;n)</text><rect fill="#EEF3FB" height="53.0762" rx="6.25" ry="6.25" style="stroke:#2F5A9E;stroke-width:0.78125;" width="302.2369" x="690.9927" y="1249.1455"/><text fill="#000000" font-family="Helvetica" font-size="18.75" lengthAdjust="spacing" textLength="270.9869" x="706.6177" y="1282.1747">CrearSalaJob (T&#8722;5) &#8594; LiveKit</text><rect fill="#EEF3FB" height="53.0762" rx="6.25" ry="6.25" style="stroke:#2F5A9E;stroke-width:0.78125;" width="477.0935" x="603.5645" y="1333.4717"/><text fill="#000000" font-family="Helvetica" font-size="18.75" lengthAdjust="spacing" textLength="445.8435" x="619.1895" y="1366.5009">Participantes &#8594; token &#8594; LiveKit &#8594; webhook join</text><rect fill="none" height="209.2285" rx="6.25" ry="6.25" style="stroke:#000000;stroke-width:2.34375;" width="499.8932" x="592.1646" y="1509.4208"/><path d="M726.6342,1509.4208 L726.6342,1520.3094 L711.0092,1535.9344 L592.1646,1535.9344 " fill="none" style="stroke:#000000;stroke-width:2.34375;"/><text fill="#000000" font-family="Helvetica" font-size="18.75" lengthAdjust="spacing" textLength="118.8446" x="596.8521" y="1528.3875">ref: No-show</text><rect fill="#EEF3FB" height="53.0762" rx="6.25" ry="6.25" style="stroke:#2F5A9E;stroke-width:0.78125;" width="468.6432" x="607.7896" y="1562.4969"/><text fill="#000000" font-family="Helvetica" font-size="18.75" lengthAdjust="spacing" textLength="437.3932" x="623.4146" y="1595.5261">NoShowJob &#8594; SesionService.ejecutarNoShow()</text><rect fill="#EEF3FB" height="53.0762" rx="6.25" ry="6.25" style="stroke:#2F5A9E;stroke-width:0.78125;" width="348.2788" x="667.9718" y="1646.8231"/><text fill="#000000" font-family="Helvetica" font-size="18.75" lengthAdjust="spacing" textLength="317.0288" x="683.5968" y="1679.8523">EscrowService libera o reembolsa</text><ellipse cx="842.1112" cy="1767.0868" fill="none" rx="17.1875" ry="17.1875" style="stroke:#222222;stroke-width:1.5625;"/><ellipse cx="842.1112" cy="1767.0868" fill="#222222" rx="9.375" ry="9.375" style="stroke:#222222;stroke-width:1.5625;"/><polygon fill="#EEF3FB" points="726.9882,1436.5479,957.2342,1436.5479,975.9842,1455.2979,957.2342,1474.0479,726.9882,1474.0479,708.2382,1455.2979,726.9882,1436.5479" style="stroke:#2F5A9E;stroke-width:0.78125;"/><text fill="#000000" font-family="Helvetica" font-size="18.75" lengthAdjust="spacing" textLength="23.3551" x="848.3612" y="1491.452">no</text><text fill="#000000" font-family="Helvetica" font-size="18.75" lengthAdjust="spacing" textLength="230.246" x="726.9882" y="1461.7889">&#191;Par completo en T+10?</text><rect fill="none" height="209.2285" rx="6.25" ry="6.25" style="stroke:#000000;stroke-width:2.34375;" width="621.4844" x="531.369" y="1922.7722"/><path d="M823.3185,1922.7722 L823.3185,1933.6609 L807.6935,1949.2859 L531.369,1949.2859 " fill="none" style="stroke:#000000;stroke-width:2.34375;"/><text fill="#000000" font-family="Helvetica" font-size="18.75" lengthAdjust="spacing" textLength="276.3245" x="536.0565" y="1941.7389">ref: Kill-switch (sd Seguridad)</text><rect fill="#EEF3FB" height="53.0762" rx="6.25" ry="6.25" style="stroke:#2F5A9E;stroke-width:0.78125;" width="529.7546" x="577.2339" y="1975.8484"/><text fill="#000000" font-family="Helvetica" font-size="18.75" lengthAdjust="spacing" textLength="498.5046" x="592.8589" y="2008.8776">SesionController &#8594; SesionService.ejecutarKillswitch()</text><rect fill="#EEF3FB" height="53.0762" rx="6.25" ry="6.25" style="stroke:#2F5A9E;stroke-width:0.78125;" width="590.2344" x="546.994" y="2060.1746"/><text fill="#000000" font-family="Helvetica" font-size="18.75" lengthAdjust="spacing" textLength="558.9844" x="562.619" y="2093.2037">EscrowService &#8594; pausado_alerta; AlertaSeguridad &#8594; Admin</text><ellipse cx="842.1112" cy="2180.4382" fill="none" rx="17.1875" ry="17.1875" style="stroke:#222222;stroke-width:1.5625;"/><ellipse cx="842.1112" cy="2180.4382" fill="#222222" rx="9.375" ry="9.375" style="stroke:#222222;stroke-width:1.5625;"/><polygon fill="#EEF3FB" points="741.7465,1849.8993,942.4759,1849.8993,961.2259,1868.6493,942.4759,1887.3993,741.7465,1887.3993,722.9965,1868.6493,741.7465,1849.8993" style="stroke:#2F5A9E;stroke-width:0.78125;"/><text fill="#000000" font-family="Helvetica" font-size="18.75" lengthAdjust="spacing" textLength="14.978" x="848.3612" y="1904.8035">s&#237;</text><text fill="#000000" font-family="Helvetica" font-size="18.75" lengthAdjust="spacing" textLength="200.7294" x="741.7465" y="1875.1404">&#191;Kill-switch activado?</text><rect fill="none" height="124.9023" rx="6.25" ry="6.25" style="stroke:#000000;stroke-width:2.34375;" width="600.4822" x="541.8701" y="2247.6257"/><path d="M864.0411,2247.6257 L864.0411,2258.5144 L848.4161,2274.1394 L541.8701,2274.1394 " fill="none" style="stroke:#000000;stroke-width:2.34375;"/><text fill="#000000" font-family="Helvetica" font-size="18.75" lengthAdjust="spacing" textLength="306.546" x="546.5576" y="2266.5924">ref: Cierre (sd Corte autom&#225;tico)</text><rect fill="#EEF3FB" height="53.0762" rx="6.25" ry="6.25" style="stroke:#2F5A9E;stroke-width:0.78125;" width="569.2322" x="557.4951" y="2300.7019"/><text fill="#000000" font-family="Helvetica" font-size="18.75" lengthAdjust="spacing" textLength="537.9822" x="573.1201" y="2333.7311">CorteAutomaticoJob o finalizar() &#8594; SesionFinalizadaEvent</text><rect fill="#555555" height="9.375" rx="3.9063" ry="3.9063" style="stroke:#555555;stroke-width:1.5625;" width="1649.8474" x="17.1875" y="2403.7781"/><rect fill="none" height="124.9023" rx="6.25" ry="6.25" style="stroke:#000000;stroke-width:2.34375;" width="523.0194" x="35.9375" y="2428.7781"/><path d="M288.3362,2428.7781 L288.3362,2439.6667 L272.7112,2455.2917 L35.9375,2455.2917 " fill="none" style="stroke:#000000;stroke-width:2.34375;"/><text fill="#000000" font-family="Helvetica" font-size="18.75" lengthAdjust="spacing" textLength="236.7737" x="40.625" y="2447.7448">ref: Liberaci&#243;n de escrow</text><rect fill="#EEF3FB" height="53.0762" rx="6.25" ry="6.25" style="stroke:#2F5A9E;stroke-width:0.78125;" width="491.7694" x="51.5625" y="2481.8542"/><text fill="#000000" font-family="Helvetica" font-size="18.75" lengthAdjust="spacing" textLength="460.5194" x="67.1875" y="2514.8834">LiberacionEscrowJob (fin + 24 h) &#8594; MercadoPago</text><rect fill="none" height="124.9023" rx="6.25" ry="6.25" style="stroke:#000000;stroke-width:2.34375;" width="534.7931" x="602.7069" y="2428.7781"/><path d="M856.6071,2428.7781 L856.6071,2439.6667 L840.9821,2455.2917 L602.7069,2455.2917 " fill="none" style="stroke:#000000;stroke-width:2.34375;"/><text fill="#000000" font-family="Helvetica" font-size="18.75" lengthAdjust="spacing" textLength="238.2751" x="607.3944" y="2447.7448">ref: Resumen autom&#225;tico</text><rect fill="#EEF3FB" height="53.0762" rx="6.25" ry="6.25" style="stroke:#2F5A9E;stroke-width:0.78125;" width="503.5431" x="618.3319" y="2481.8542"/><text fill="#000000" font-family="Helvetica" font-size="18.75" lengthAdjust="spacing" textLength="472.2931" x="633.9569" y="2514.8834">ResumenService &#8594; transcript &#8594; anonimizar &#8594; LLM</text><rect fill="none" height="124.9023" rx="6.25" ry="6.25" style="stroke:#000000;stroke-width:2.34375;" width="467.0349" x="1181.25" y="2428.7781"/><path d="M1342.4805,2428.7781 L1342.4805,2439.6667 L1326.8555,2455.2917 L1181.25,2455.2917 " fill="none" style="stroke:#000000;stroke-width:2.34375;"/><text fill="#000000" font-family="Helvetica" font-size="18.75" lengthAdjust="spacing" textLength="145.6055" x="1185.9375" y="2447.7448">ref: Calificaci&#243;n</text><rect fill="#EEF3FB" height="53.0762" rx="6.25" ry="6.25" style="stroke:#2F5A9E;stroke-width:0.78125;" width="435.7849" x="1196.875" y="2481.8542"/><text fill="#000000" font-family="Helvetica" font-size="18.75" lengthAdjust="spacing" textLength="404.5349" x="1212.5" y="2514.8834">CalificacionController &#8594; CalificacionService</text><rect fill="#555555" height="9.375" rx="3.9063" ry="3.9063" style="stroke:#555555;stroke-width:1.5625;" width="1649.8474" x="17.1875" y="2584.9304"/><ellipse cx="842.1112" cy="2642.7429" fill="none" rx="17.1875" ry="17.1875" style="stroke:#222222;stroke-width:1.5625;"/><ellipse cx="842.1112" cy="2642.7429" fill="#222222" rx="9.375" ry="9.375" style="stroke:#222222;stroke-width:1.5625;"/><line style="stroke:#333333;stroke-width:1.5625;" x1="842.1112" x2="842.1112" y1="226.9287" y2="258.1787"/><polygon fill="#333333" points="835.8612,242.5537,842.1112,258.1787,848.3612,242.5537,842.1112,248.8037" style="stroke:#333333;stroke-width:1.5625;"/><line style="stroke:#333333;stroke-width:1.5625;" x1="842.1112" x2="842.1112" y1="105.1514" y2="173.8525"/><polygon fill="#333333" points="835.8612,158.2275,842.1112,173.8525,848.3612,158.2275,842.1112,164.4775" style="stroke:#333333;stroke-width:1.5625;"/><line style="stroke:#333333;stroke-width:1.5625;" x1="484.6527" x2="484.6527" y1="520.5322" y2="562.7197"/><polygon fill="#333333" points="478.4027,547.0947,484.6527,562.7197,490.9027,547.0947,484.6527,553.3447" style="stroke:#333333;stroke-width:1.5625;"/><line style="stroke:#333333;stroke-width:1.5625;" x1="724.4843" x2="484.6527" y1="380.0049" y2="380.0049"/><line style="stroke:#333333;stroke-width:1.5625;" x1="484.6527" x2="484.6527" y1="380.0049" y2="467.4561"/><polygon fill="#333333" points="478.4027,451.8311,484.6527,467.4561,490.9027,451.8311,484.6527,458.0811" style="stroke:#333333;stroke-width:1.5625;"/><line style="stroke:#333333;stroke-width:1.5625;" x1="959.7382" x2="1199.5697" y1="380.0049" y2="380.0049"/><line style="stroke:#333333;stroke-width:1.5625;" x1="1199.5697" x2="1199.5697" y1="380.0049" y2="467.4561"/><polygon fill="#333333" points="1193.3197,451.8311,1199.5697,467.4561,1205.8197,451.8311,1199.5697,458.0811" style="stroke:#333333;stroke-width:1.5625;"/><line style="stroke:#333333;stroke-width:1.5625;" x1="484.6527" x2="484.6527" y1="615.7959" y2="662.6709"/><line style="stroke:#333333;stroke-width:1.5625;" x1="484.6527" x2="823.3612" y1="662.6709" y2="662.6709"/><polygon fill="#333333" points="807.7362,656.4209,823.3612,662.6709,807.7362,668.9209,813.9862,662.6709" style="stroke:#333333;stroke-width:1.5625;"/><line style="stroke:#333333;stroke-width:1.5625;" x1="1199.5697" x2="1199.5697" y1="520.5322" y2="662.6709"/><line style="stroke:#333333;stroke-width:1.5625;" x1="1199.5697" x2="860.8612" y1="662.6709" y2="662.6709"/><polygon fill="#333333" points="876.4862,656.4209,860.8612,662.6709,876.4862,668.9209,870.2362,662.6709" style="stroke:#333333;stroke-width:1.5625;"/><line style="stroke:#333333;stroke-width:1.5625;" x1="842.1112" x2="842.1112" y1="311.2549" y2="361.2549"/><polygon fill="#333333" points="835.8612,345.6299,842.1112,361.2549,848.3612,345.6299,842.1112,351.8799" style="stroke:#333333;stroke-width:1.5625;"/><line style="stroke:#333333;stroke-width:1.5625;" x1="842.1112" x2="842.1112" y1="803.1982" y2="834.4482"/><polygon fill="#333333" points="835.8612,818.8232,842.1112,834.4482,848.3612,818.8232,842.1112,825.0732" style="stroke:#333333;stroke-width:1.5625;"/><line style="stroke:#333333;stroke-width:1.5625;" x1="842.1112" x2="842.1112" y1="681.4209" y2="750.1221"/><polygon fill="#333333" points="835.8612,734.4971,842.1112,750.1221,848.3612,734.4971,842.1112,740.7471" style="stroke:#333333;stroke-width:1.5625;"/><line style="stroke:#333333;stroke-width:1.5625;" x1="842.1112" x2="842.1112" y1="1067.1387" y2="1111.6943"/><polygon fill="#333333" points="835.8612,1096.0693,842.1112,1111.6943,848.3612,1096.0693,842.1112,1102.3193" style="stroke:#333333;stroke-width:1.5625;"/><line style="stroke:#333333;stroke-width:1.5625;" x1="842.1112" x2="842.1112" y1="975.0244" y2="1014.0625"/><polygon fill="#333333" points="835.8612,998.4375,842.1112,1014.0625,848.3612,998.4375,842.1112,1004.6875" style="stroke:#333333;stroke-width:1.5625;"/><line style="stroke:#333333;stroke-width:1.5625;" x1="991.8045" x2="1099.8856" y1="956.2744" y2="956.2744"/><polygon fill="#333333" points="1093.6356,1064.8193,1099.8856,1080.4443,1106.1356,1064.8193,1099.8856,1071.0693" style="stroke:#333333;stroke-width:1.5625;"/><line style="stroke:#333333;stroke-width:1.5625;" x1="1099.8856" x2="1099.8856" y1="956.2744" y2="1180.4443"/><line style="stroke:#333333;stroke-width:1.5625;" x1="1099.8856" x2="842.1112" y1="1180.4443" y2="1180.4443"/><line style="stroke:#333333;stroke-width:1.5625;" x1="842.1112" x2="842.1112" y1="1180.4443" y2="1249.1455"/><polygon fill="#333333" points="835.8612,1233.5205,842.1112,1249.1455,848.3612,1233.5205,842.1112,1239.7705" style="stroke:#333333;stroke-width:1.5625;"/><line style="stroke:#333333;stroke-width:1.5625;" x1="842.1112" x2="842.1112" y1="887.5244" y2="937.5244"/><polygon fill="#333333" points="835.8612,921.8994,842.1112,937.5244,848.3612,921.8994,842.1112,928.1494" style="stroke:#333333;stroke-width:1.5625;"/><line style="stroke:#333333;stroke-width:1.5625;" x1="842.1112" x2="842.1112" y1="1302.2217" y2="1333.4717"/><polygon fill="#333333" points="835.8612,1317.8467,842.1112,1333.4717,848.3612,1317.8467,842.1112,1324.0967" style="stroke:#333333;stroke-width:1.5625;"/><line style="stroke:#333333;stroke-width:1.5625;" x1="842.1112" x2="842.1112" y1="1615.5731" y2="1646.8231"/><polygon fill="#333333" points="835.8612,1631.1981,842.1112,1646.8231,848.3612,1631.1981,842.1112,1637.4481" style="stroke:#333333;stroke-width:1.5625;"/><line style="stroke:#333333;stroke-width:1.5625;" x1="842.1112" x2="842.1112" y1="1699.8993" y2="1749.8993"/><polygon fill="#333333" points="835.8612,1734.2743,842.1112,1749.8993,848.3612,1734.2743,842.1112,1740.5243" style="stroke:#333333;stroke-width:1.5625;"/><line style="stroke:#333333;stroke-width:1.5625;" x1="842.1112" x2="842.1112" y1="1474.0479" y2="1562.4969"/><polygon fill="#333333" points="835.8612,1546.8719,842.1112,1562.4969,848.3612,1546.8719,842.1112,1553.1219" style="stroke:#333333;stroke-width:1.5625;"/><line style="stroke:#333333;stroke-width:1.5625;" x1="975.9842" x2="1107.6828" y1="1455.2979" y2="1455.2979"/><polygon fill="#333333" points="1101.4328,1632.785,1107.6828,1648.41,1113.9328,1632.785,1107.6828,1639.035" style="stroke:#333333;stroke-width:1.5625;"/><line style="stroke:#333333;stroke-width:1.5625;" x1="1107.6828" x2="1107.6828" y1="1455.2979" y2="1818.6493"/><line style="stroke:#333333;stroke-width:1.5625;" x1="1107.6828" x2="842.1112" y1="1818.6493" y2="1818.6493"/><line style="stroke:#333333;stroke-width:1.5625;" x1="842.1112" x2="842.1112" y1="1818.6493" y2="1849.8993"/><polygon fill="#333333" points="835.8612,1834.2743,842.1112,1849.8993,848.3612,1834.2743,842.1112,1840.5243" style="stroke:#333333;stroke-width:1.5625;"/><line style="stroke:#333333;stroke-width:1.5625;" x1="842.1112" x2="842.1112" y1="1386.5479" y2="1436.5479"/><polygon fill="#333333" points="835.8612,1420.9229,842.1112,1436.5479,848.3612,1420.9229,842.1112,1427.1729" style="stroke:#333333;stroke-width:1.5625;"/><line style="stroke:#333333;stroke-width:1.5625;" x1="842.1112" x2="842.1112" y1="2028.9246" y2="2060.1746"/><polygon fill="#333333" points="835.8612,2044.5496,842.1112,2060.1746,848.3612,2044.5496,842.1112,2050.7996" style="stroke:#333333;stroke-width:1.5625;"/><line style="stroke:#333333;stroke-width:1.5625;" x1="842.1112" x2="842.1112" y1="2113.2507" y2="2163.2507"/><polygon fill="#333333" points="835.8612,2147.6257,842.1112,2163.2507,848.3612,2147.6257,842.1112,2153.8757" style="stroke:#333333;stroke-width:1.5625;"/><line style="stroke:#333333;stroke-width:1.5625;" x1="842.1112" x2="842.1112" y1="1887.3993" y2="1975.8484"/><polygon fill="#333333" points="835.8612,1960.2234,842.1112,1975.8484,848.3612,1960.2234,842.1112,1966.4734" style="stroke:#333333;stroke-width:1.5625;"/><line style="stroke:#333333;stroke-width:1.5625;" x1="961.2259" x2="1168.4784" y1="1868.6493" y2="1868.6493"/><polygon fill="#333333" points="1162.2284,2046.1365,1168.4784,2061.7615,1174.7284,2046.1365,1168.4784,2052.3865" style="stroke:#333333;stroke-width:1.5625;"/><line style="stroke:#333333;stroke-width:1.5625;" x1="1168.4784" x2="1168.4784" y1="1868.6493" y2="2232.0007"/><line style="stroke:#333333;stroke-width:1.5625;" x1="1168.4784" x2="842.1112" y1="2232.0007" y2="2232.0007"/><line style="stroke:#333333;stroke-width:1.5625;" x1="842.1112" x2="842.1112" y1="2232.0007" y2="2300.7019"/><polygon fill="#333333" points="835.8612,2285.0769,842.1112,2300.7019,848.3612,2285.0769,842.1112,2291.3269" style="stroke:#333333;stroke-width:1.5625;"/><line style="stroke:#333333;stroke-width:1.5625;" x1="297.4472" x2="297.4472" y1="2413.1531" y2="2481.8542"/><polygon fill="#333333" points="291.1972,2466.2292,297.4472,2481.8542,303.6972,2466.2292,297.4472,2472.4792" style="stroke:#333333;stroke-width:1.5625;"/><line style="stroke:#333333;stroke-width:1.5625;" x1="870.1035" x2="870.1035" y1="2413.1531" y2="2481.8542"/><polygon fill="#333333" points="863.8535,2466.2292,870.1035,2481.8542,876.3535,2466.2292,870.1035,2472.4792" style="stroke:#333333;stroke-width:1.5625;"/><line style="stroke:#333333;stroke-width:1.5625;" x1="1414.7675" x2="1414.7675" y1="2413.1531" y2="2481.8542"/><polygon fill="#333333" points="1408.5175,2466.2292,1414.7675,2481.8542,1421.0175,2466.2292,1414.7675,2472.4792" style="stroke:#333333;stroke-width:1.5625;"/><line style="stroke:#333333;stroke-width:1.5625;" x1="297.4472" x2="297.4472" y1="2534.9304" y2="2584.9304"/><polygon fill="#333333" points="291.1972,2569.3054,297.4472,2584.9304,303.6972,2569.3054,297.4472,2575.5554" style="stroke:#333333;stroke-width:1.5625;"/><line style="stroke:#333333;stroke-width:1.5625;" x1="870.1035" x2="870.1035" y1="2534.9304" y2="2584.9304"/><polygon fill="#333333" points="863.8535,2569.3054,870.1035,2584.9304,876.3535,2569.3054,870.1035,2575.5554" style="stroke:#333333;stroke-width:1.5625;"/><line style="stroke:#333333;stroke-width:1.5625;" x1="1414.7675" x2="1414.7675" y1="2534.9304" y2="2584.9304"/><polygon fill="#333333" points="1408.5175,2569.3054,1414.7675,2584.9304,1421.0175,2569.3054,1414.7675,2575.5554" style="stroke:#333333;stroke-width:1.5625;"/><line style="stroke:#333333;stroke-width:1.5625;" x1="842.1112" x2="842.1112" y1="2353.7781" y2="2403.7781"/><polygon fill="#333333" points="835.8612,2388.1531,842.1112,2403.7781,848.3612,2388.1531,842.1112,2394.4031" style="stroke:#333333;stroke-width:1.5625;"/><line style="stroke:#333333;stroke-width:1.5625;" x1="842.1112" x2="842.1112" y1="2594.3054" y2="2625.5554"/><polygon fill="#333333" points="835.8612,2609.9304,842.1112,2625.5554,848.3612,2609.9304,842.1112,2616.1804" style="stroke:#333333;stroke-width:1.5625;"/><!--SRC=[ZLJDRYD54BxxAOezZRLAO15xYG_8woGIRFP7E1B7LRcdRDUcfyjqzpWIQ2LEYFEA5-01E77ZWaJU94z2TVVCxApZ5LmIJ_r-zTLN_HaxOzkQu0s5o5PEkMti97Aq1EUC6uyDWhht7FZkJmSRSkJH9XExg3-DON4KuFxdt-2Sm2AixluAFxHK8sYSOVAUKhXwZCL0aqc8wEDaftyuQZ8yyhG-WsTjCEWXjb6yrgj23IymcYsxpVGH_3G1EBlqeZrT3VU_l4_nkSj2RLwi9P_DVSuhhrxjL8kVfTmZzXpVTFQJG7xFXk3rg-KrV9xDiycx2Q-X-kVlPphscWsZPu66dFYlfn2tv1JdtHzJRN0upbAiniUsJhC7AkobeGP7DrN2bWfcD8DpD5LbFA6Vpahil6vj5FYEmavSm9NkAINYpiiAIn7rwIouB0ETTgwXT9LBlPkG3GILasFekn9GioSJCGFlR1zWNmIjngWh6RSzsCS1c3pBUQaw074rhn_euJLk18n-KZ1URZE4R4jAk-JDgR9gMdAwb5uVoTqrAbeWRtJHEQlQQLNo9JuhudjQRKLkSkH5xj63LC8C1VGfSPxPgoM1xTMG2sBd01N1awVGi1iaKJWzKy3Nt92qSI2q-qu5lfLLRctG6RAOLHgYx3v1npTkesSXwQQmrLkgCWL6cjQnGPFarTEmI1mlqM9gKLtV__h-wJItkk8zFUSuArnfVSExjBwGlL5k5FmeBl- -xLXwA-p63FZKUsSfPWAk7p_vuc3ymm5UoadOoksWdfUorC-UXQLUYBX-0VHMLwklH8cfUkr_j2MmlDBt1mGyKRCI6x38wICQ2zpdREr9k6MzQK0JUQzx-wy37kVakwLDwxd6qTqMq0U2Fpv9gbQAVMAQbBh3DYYoDwYr8ivWdlyFZNFCl6xI8XuCUWX_KHxUX7mXNayKzM5jxdxNfSiWbEIO9picSzg5m9eTMluHVJKTpNFPMMkys9EBIGbhyJT7UBlAQyc2J4zVkTw1ijuhheoV9QejuJ5y-HLifuTtMoPDhG0toExuMzNgapmUS6ZN-SOaHuzEM_Ekw1kTE6xIl4NwLo_-Hyk5Sh7kpsvezi7wG1HZLmTcUFiW4vbM-Iy0]--></g></svg>